HIERARCHY
ROOT Root
{
  OFFSET 0.7855 12.0067 -25.3902
  CHANNELS 6 Xposition Yposition Zposition Zrotation Xrotation Yrotation
  JOINT Spine
  {
    OFFSET 5.3114 0 0
    CHANNELS 3 Zrotation Xrotation Yrotation
    JOINT Spine1
    {
      OFFSET 2.79004 0 0
      CHANNELS 3 Zrotation Xrotation Yrotation
      JOINT Neck
      {
        OFFSET 1.43377 0 0
        CHANNELS 3 Zrotation Xrotation Yrotation
        JOINT Head
        {
          OFFSET 1.86043 0 0
          CHANNELS 3 Zrotation Xrotation Yrotation
          End Site
          {
            OFFSET 0 0 0
          }
        }
      }
      JOINT LeftArm
      {
        OFFSET 0.0387506 0 2.55754
        CHANNELS 3 Zrotation Xrotation Yrotation
        JOINT LeftForeArm
        {
          OFFSET 4.24845 0 0
          CHANNELS 3 Zrotation Xrotation Yrotation
          JOINT LeftHand
          {
            OFFSET 4.01008 0 0
            CHANNELS 3 Zrotation Xrotation Yrotation
            End Site
            {
              OFFSET 0 0 0
            }
          }
        }
      }
      JOINT RightArm
      {
        OFFSET 0.0387506 0 -2.55754
        CHANNELS 3 Zrotation Xrotation Yrotation
        JOINT RightForeArm
        {
          OFFSET -4.24845 0 0
          CHANNELS 3 Zrotation Xrotation Yrotation
          JOINT RightHand
          {
            OFFSET -4.01009 0 0
            CHANNELS 3 Zrotation Xrotation Yrotation
            End Site
            {
              OFFSET 0 0 0
            }
          }
        }
      }
    }
  }
  JOINT LeftUpLeg
  {
    OFFSET -1.23318 0 2.05692
    CHANNELS 3 Zrotation Xrotation Yrotation
    JOINT LeftLeg
    {
      OFFSET 5.46397 0 0
      CHANNELS 3 Zrotation Xrotation Yrotation
      JOINT LeftFoot
      {
        OFFSET 4.68898 0 0
        CHANNELS 3 Zrotation Xrotation Yrotation
        End Site
        {
          OFFSET 0 0 0
        }
      }
    }
  }
  JOINT RightUpLeg
  {
    OFFSET -1.24454 0 -2.05007
    CHANNELS 3 Zrotation Xrotation Yrotation
    JOINT RightLeg
    {
      OFFSET -5.46397 0 0
      CHANNELS 3 Zrotation Xrotation Yrotation
      JOINT RightFoot
      {
        OFFSET -4.68901 0 0
        CHANNELS 3 Zrotation Xrotation Yrotation
        End Site
        {
          OFFSET 0 0 0
        }
      }
    }
  }
}
MOTION
Frames:	12
Frame Time:	0.00833333
0.59282 12.0928 -0.392437 172.392 81.3617 -86.243 8.77937 7.91829 10.689 -6.1999 2.07546 -0.721542 -6.60302 -4.14442 -10.7385 -10.4678 -7.78455 9.56037 33.1226 -36.7486 -170.179 84.746 23.977 42.2066 -4.56726 -29.5356 173.25 -167.005 -40.2404 -164.726 101.917 34.6762 44.4147 -0.789714 -5.60104 174.416 -43.5574 3.07137 -174.896 -83.7913 0.492566 0.432115 9.83628 3.32726 -177.916 -165.579 -2.568 172.365 -17.6677 0.20012 -0.805204 -11.8177 -1.97129 -179.06 
0.58995 12.1528 -0.00285172 174.227 81.4321 -87.9041 8.24711 7.97665 10.5492 -5.95928 2.11113 -0.791651 -6.43828 -4.20907 -10.788 -10.1898 -7.86464 9.75152 33.7243 -36.5597 -170.374 84.9539 24.1062 42.2549 -4.60051 -29.7138 173.234 -166.506 -40.308 -164.602 101.573 34.4672 44.4064 -0.663484 -4.71021 174.427 -43.7095 3.06681 -175.483 -78.9069 0.55685 0.308226 8.76324 3.38596 -177.938 -163.28 -2.77519 172.92 -15.5284 0.153616 -0.82196 -15.4672 -2.17593 -179.249 
0.586456 12.2065 0.38666 175.89 81.4772 -89.4167 7.7061 8.04355 10.4101 -5.69764 2.14782 -0.83787 -6.31296 -4.27581 -10.8535 -9.88395 -7.94941 9.94646 34.3011 -36.3867 -170.514 85.184 24.2493 42.3076 -4.63008 -29.8718 173.219 -165.976 -40.3734 -164.445 101.201 34.2413 44.397 -0.55961 -3.97551 174.435 -43.6818 3.03411 -175.999 -73.8406 0.611725 0.181473 7.55553 3.53503 -177.956 -161.106 -3.10974 173.429 -13.6083 0.111603 -0.836085 -18.693 -2.58124 -179.437 
0.583361 12.25 0.771776 177.477 81.4889 -90.8993 7.20445 8.11952 10.3138 -5.4862 2.1853 -0.881962 -6.25776 -4.34174 -10.9597 -9.53008 -8.03228 10.1452 34.8461 -36.2487 -170.57 85.4384 24.4077 42.3644 -4.64993 -29.9775 173.209 -165.431 -40.467 -164.248 100.846 34.0246 44.3862 -0.497177 -3.53323 174.439 -43.5878 2.85574 -176.465 -68.7028 0.650747 0.0588122 6.1177 3.70946 -177.967 -159.23 -3.62759 173.835 -12.2847 0.0792843 -0.845374 -21.0979 -3.00203 -179.635 
0.581179 12.2834 1.15217 179.053 81.446 -92.4147 6.72811 8.20619 10.2671 -5.33942 2.2245 -0.929318 -6.31067 -4.40992 -11.1356 -9.07193 -8.11554 10.3551 35.3858 -36.1552 -170.508 85.7338 24.5917 42.4288 -4.66318 -30.0479 173.202 -164.847 -40.5887 -163.996 100.521 33.8261 44.3746 -0.491014 -3.48951 174.44 -43.4264 2.48386 -176.905 -63.3414 0.67067 -0.0632881 4.30378 3.99179 -177.962 -157.672 -4.3957 174.131 -11.5801 0.0580112 -0.850331 -22.6133 -3.53898 -179.909 
0.579284 12.3085 1.52988 -179.481 81.3605 -93.8529 6.26022 8.30281 10.2491 -5.22087 2.2652 -0.968466 -6.44572 -4.4805 -11.3605 -8.53716 -8.20131 10.5737 35.9132 -36.0945 -170.351 86.0635 24.7973 42.5003 -4.67144 -30.0918 173.198 -164.224 -40.7245 -163.695 100.203 33.6313 44.362 -0.527543 -3.74838 174.438 -43.1517 1.98658 -177.301 -57.7581 0.675438 -0.18674 2.20464 4.3834 -177.946 -156.347 -5.36718 174.344 -11.3192 0.0450206 -0.851768 -23.4437 -4.24076 179.767 
0.576992 12.3235 1.9041 -178.258 81.2739 -95.0964 5.84453 8.40619 10.2605 -5.12532 2.3055 -0.995885 -6.5974 -4.54628 -11.5848 -8.03155 -8.28279 10.7863 36.3717 -36.0546 -170.163 86.3943 25.0038 42.5719 -4.66624 -30.0641 173.201 -163.613 -40.8835 -163.374 99.8757 33.4306 44.3471 -0.58328 -4.14308 174.434 -42.8097 1.42029 -177.611 -52.2945 0.669401 -0.302162 0.0803141 4.6975 -177.934 -155.273 -6.42662 174.467 -11.5829 0.0393427 -0.847943 -23.5922 -4.84424 179.522 
0.573618 12.327 2.27404 -177.383 81.2291 -96.0569 5.52472 8.51316 10.3024 -5.04758 2.34348 -1.00805 -6.69989 -4.60016 -11.7584 -7.66104 -8.35325 10.9778 36.7047 -36.0236 -170.002 86.6932 25.1905 42.636 -4.63913 -29.9199 173.214 -163.066 -41.0754 -163.063 99.5242 33.2143 44.3289 -0.634697 -4.50683 174.43 -42.4425 0.841552 -177.79 -47.2923 0.656907 -0.400176 -1.80871 4.74734 -177.944 -154.471 -7.45845 174.492 -12.4517 0.0400077 -0.837119 -23.0528 -5.08651 179.486 
0.569119 12.3158 2.639 -176.988 81.2376 -96.6437 5.31742 8.65577 10.4178 -5.00334 2.38752 -1.00807 -6.72483 -4.65032 -11.8709 -7.45551 -8.42692 11.1296 36.8767 -36.0149 -169.891 86.9375 25.3432 42.6878 -4.57494 -29.5767 173.246 -162.568 -41.3039 -162.749 99.1653 32.9936 44.3106 -0.681815 -4.83979 174.426 -42.048 0.199468 -177.785 -42.7349 0.634858 -0.478312 -3.42882 4.40476 -177.985 -153.981 -8.51757 174.391 -14.0068 0.0504946 -0.816824 -21.5302 -4.91353 179.735 
0.563815 12.2917 2.99956 -176.965 81.2798 -96.9445 5.19682 8.82455 10.5922 -4.98973 2.43569 -0.996481 -6.71068 -4.69728 -11.9478 -7.35811 -8.50214 11.2545 36.925 -36.0294 -169.794 87.1496 25.4759 42.7319 -4.48319 -29.082 173.291 -162.099 -41.5632 -162.423 98.8003 32.769 44.2918 -0.735118 -5.21603 174.421 -41.6007 -0.513773 -177.632 -38.4761 0.602355 -0.54156 -4.90795 3.79545 -178.046 -153.792 -9.63598 174.173 -16.1854 0.0700749 -0.788657 -19.1277 -4.45997 -179.816 
0.557563 12.2601 3.35688 -177.045 81.3507 -97.149 5.14416 8.95425 10.7396 -4.9737 2.47056 -0.965876 -6.69153 -4.72252 -11.9939 -7.34494 -8.54835 11.3848 36.9018 -36.0365 -169.691 87.3643 25.6104 42.775 -4.39201 -28.5856 173.335 -161.706 -41.8491 -162.118 98.3895 32.5152 44.266 -0.78669 -5.57963 174.416 -41.109 -1.17705 -177.427 -34.6627 0.567052 -0.591735 -6.22746 3.11343 -178.113 -153.843 -10.6639 173.896 -18.852 0.0914679 -0.756975 -16.4382 -3.74621 -179.272 
0.550221 12.2265 3.71213 -176.956 81.4448 -97.4492 5.14205 8.98001 10.7738 -4.9222 2.47471 -0.908862 -6.70146 -4.7075 -12.0137 -7.39225 -8.53494 11.5529 36.8594 -36.0058 -169.561 87.6164 25.7682 42.8244 -4.3286 -28.2377 173.365 -161.44 -42.1577 -161.868 97.8929 32.2068 44.2274 -0.828567 -5.87466 174.412 -40.5873 -1.66948 -177.265 -31.4413 0.536602 -0.630647 -7.36734 2.55274 -178.174 -154.068 -11.4523 173.619 -21.8714 0.107393 -0.726138 -14.0521 -2.79303 -178.74 
